<svg id="visual" viewBox="0 0 1920 1080" width="1920" height="1080" xmlns="http://www.w3.org/2000/svg" xmlns:xlink="http://www.w3.org/1999/xlink" version="1.1"><rect x="0" y="0" width="1920" height="1080" fill="#ffffff"></rect><defs><linearGradient id="grad1_0" x1="43.8%" y1="100%" x2="100%" y2="0%"><stop offset="14.444444444444446%" stop-color="#ffffff" stop-opacity="1"></stop><stop offset="85.55555555555554%" stop-color="#ffffff" stop-opacity="1"></stop></linearGradient></defs><defs><linearGradient id="grad2_0" x1="0%" y1="100%" x2="56.3%" y2="0%"><stop offset="14.444444444444446%" stop-color="#ffffff" stop-opacity="1"></stop><stop offset="85.55555555555554%" stop-color="#ffffff" stop-opacity="1"></stop></linearGradient></defs><g transform="translate(1920, 1080)"><path d="M-469 0C-501.3 -79.5 -533.7 -159 -498.9 -206.6C-464.1 -254.3 -362.2 -270.1 -299.1 -299.1C-236 -328.1 -211.8 -370.2 -168.4 -406.5C-125 -442.8 -62.5 -473.4 0 -504L0 0Z" fill="#0066FF"></path></g><g transform="translate(0, 0)"><path d="M414 0C411.5 55.7 409 111.4 391.7 162.3C374.5 213.1 342.5 259.1 308.3 308.3C274.1 357.5 237.7 409.9 186 449C134.2 488.2 67.1 514.1 0 540L0 0Z" fill="#0066FF"></path></g></svg>