<svg id="visual" viewBox="0 0 1920 1080" width="1920" height="1080" xmlns="http://www.w3.org/2000/svg" xmlns:xlink="http://www.w3.org/1999/xlink" version="1.1"><rect x="0" y="0" width="1920" height="1080" fill="#001220"></rect><path d="M0 674L45.7 668.3C91.3 662.7 182.7 651.3 274.2 646.8C365.7 642.3 457.3 644.7 548.8 659.8C640.3 675 731.7 703 823 722C914.3 741 1005.7 751 1097 742C1188.3 733 1279.7 705 1371.2 701.5C1462.7 698 1554.3 719 1645.8 713.5C1737.3 708 1828.7 676 1874.3 660L1920 644L1920 1081L1874.3 1081C1828.7 1081 1737.3 1081 1645.8 1081C1554.3 1081 1462.7 1081 1371.2 1081C1279.7 1081 1188.3 1081 1097 1081C1005.7 1081 914.3 1081 823 1081C731.7 1081 640.3 1081 548.8 1081C457.3 1081 365.7 1081 274.2 1081C182.7 1081 91.3 1081 45.7 1081L0 1081Z" fill="#fa7268"></path><path d="M0 847L45.7 830.3C91.3 813.7 182.7 780.3 274.2 770C365.7 759.7 457.3 772.3 548.8 788.3C640.3 804.3 731.7 823.7 823 813.8C914.3 804 1005.7 765 1097 747.8C1188.3 730.7 1279.7 735.3 1371.2 743.5C1462.7 751.7 1554.3 763.3 1645.8 782.3C1737.3 801.3 1828.7 827.7 1874.3 840.8L1920 854L1920 1081L1874.3 1081C1828.7 1081 1737.3 1081 1645.8 1081C1554.3 1081 1462.7 1081 1371.2 1081C1279.7 1081 1188.3 1081 1097 1081C1005.7 1081 914.3 1081 823 1081C731.7 1081 640.3 1081 548.8 1081C457.3 1081 365.7 1081 274.2 1081C182.7 1081 91.3 1081 45.7 1081L0 1081Z" fill="#ef5f67"></path><path d="M0 807L45.7 814.8C91.3 822.7 182.7 838.3 274.2 835C365.7 831.7 457.3 809.3 548.8 815.5C640.3 821.7 731.7 856.3 823 878.2C914.3 900 1005.7 909 1097 905.7C1188.3 902.3 1279.7 886.7 1371.2 882.7C1462.7 878.7 1554.3 886.3 1645.8 885.5C1737.3 884.7 1828.7 875.3 1874.3 870.7L1920 866L1920 1081L1874.3 1081C1828.7 1081 1737.3 1081 1645.8 1081C1554.3 1081 1462.7 1081 1371.2 1081C1279.7 1081 1188.3 1081 1097 1081C1005.7 1081 914.3 1081 823 1081C731.7 1081 640.3 1081 548.8 1081C457.3 1081 365.7 1081 274.2 1081C182.7 1081 91.3 1081 45.7 1081L0 1081Z" fill="#e34c67"></path><path d="M0 867L45.7 869.3C91.3 871.7 182.7 876.3 274.2 890.7C365.7 905 457.3 929 548.8 929.7C640.3 930.3 731.7 907.7 823 909.2C914.3 910.7 1005.7 936.3 1097 936.8C1188.3 937.3 1279.7 912.7 1371.2 912C1462.7 911.3 1554.3 934.7 1645.8 940.2C1737.3 945.7 1828.7 933.3 1874.3 927.2L1920 921L1920 1081L1874.3 1081C1828.7 1081 1737.3 1081 1645.8 1081C1554.3 1081 1462.7 1081 1371.2 1081C1279.7 1081 1188.3 1081 1097 1081C1005.7 1081 914.3 1081 823 1081C731.7 1081 640.3 1081 548.8 1081C457.3 1081 365.7 1081 274.2 1081C182.7 1081 91.3 1081 45.7 1081L0 1081Z" fill="#d53867"></path><path d="M0 990L45.7 990.8C91.3 991.7 182.7 993.3 274.2 993.5C365.7 993.7 457.3 992.3 548.8 985.8C640.3 979.3 731.7 967.7 823 972.5C914.3 977.3 1005.7 998.7 1097 1009.5C1188.3 1020.3 1279.7 1020.7 1371.2 1014.8C1462.7 1009 1554.3 997 1645.8 988.3C1737.3 979.7 1828.7 974.3 1874.3 971.7L1920 969L1920 1081L1874.3 1081C1828.7 1081 1737.3 1081 1645.8 1081C1554.3 1081 1462.7 1081 1371.2 1081C1279.7 1081 1188.3 1081 1097 1081C1005.7 1081 914.3 1081 823 1081C731.7 1081 640.3 1081 548.8 1081C457.3 1081 365.7 1081 274.2 1081C182.7 1081 91.3 1081 45.7 1081L0 1081Z" fill="#c62368"></path></svg>